# xmcd CD database file
#
# Track frame offsets:
#	150
#	18256
#	36249
#	54016
#	70612
#	90041
#	112529
#	126898
#	146564
#	181255
#
# Disc length: 2658 seconds
#
# Revision: 1
# Processed by: cddbd v1.5PL3 Copyright (c) Steve Scherf et al.
# Submitted via: Feurio! 1.67 - http://www.feurio.com
#
DISCID=6b0a600a
DTITLE=Jeff Klein - Everybody Loves a Winner
DYEAR=2003
DGENRE=Country
TTITLE0=Everything is Alright
TTITLE1=California
TTITLE2=I'm Sorry Sweet Emily
TTITLE3=Keep it (Like a Secret)
TTITLE4=Another Breakdown
TTITLE5=Five Good Reasons
TTITLE6=Holding in the World
TTITLE7=Goodbye
TTITLE8=Steady Wins
TTITLE9=Take the Wheel
EXTD=
EXTT0=
EXTT1=
EXTT2=
EXTT3=
EXTT4=
EXTT5=
EXTT6=
EXTT7=
EXTT8=
EXTT9=
PLAYORDER=
